<svg width="97" height="15" viewBox="0 0 97 15" fill="none" xmlns="http://www.w3.org/2000/svg">
<path d="M7.65 12.2457L11.3601 14.4897C12.0396 14.9009 12.871 14.293 12.6922 13.5241L11.7088 9.3044L14.9898 6.46145C15.5888 5.94293 15.267 4.95952 14.4802 4.89694L10.1622 4.53039L8.47249 0.543111C8.16853 -0.181037 7.13147 -0.181037 6.82751 0.543111L5.13783 4.52145L0.819769 4.888C0.0330404 4.95058 -0.288803 5.93399 0.310183 6.45251L3.5912 9.29546L2.60779 13.5152C2.42899 14.284 3.26041 14.892 3.93986 14.4807L7.65 12.2457Z" fill="#2162BE"/>
<path d="M27.95 12.2457L31.6601 14.4897C32.3396 14.9009 33.171 14.293 32.9922 13.5241L32.0088 9.3044L35.2898 6.46145C35.8888 5.94293 35.5669 4.95952 34.7802 4.89694L30.4622 4.53039L28.7725 0.543111C28.4685 -0.181037 27.4315 -0.181037 27.1275 0.543111L25.4378 4.52145L21.1198 4.888C20.333 4.95058 20.0112 5.93399 20.6102 6.45251L23.8912 9.29546L22.9078 13.5152C22.729 14.284 23.5604 14.892 24.2398 14.4807L27.95 12.2457Z" fill="#2162BE"/>
<path d="M48.25 12.2457L51.9601 14.4897C52.6396 14.9009 53.471 14.293 53.2922 13.5241L52.3088 9.3044L55.5898 6.46145C56.1888 5.94293 55.8669 4.95952 55.0802 4.89694L50.7621 4.53039L49.0725 0.543111C48.7685 -0.181037 47.7315 -0.181037 47.4275 0.543111L45.7378 4.52145L41.4197 4.888C40.633 4.95058 40.3112 5.93399 40.9102 6.45251L44.1912 9.29546L43.2078 13.5152C43.029 14.284 43.8604 14.892 44.5398 14.4807L48.25 12.2457Z" fill="#2162BE"/>
<path d="M68.55 12.2457L72.2601 14.4897C72.9396 14.9009 73.771 14.293 73.5922 13.5241L72.6088 9.3044L75.8898 6.46145C76.4888 5.94293 76.1669 4.95952 75.3802 4.89694L71.0621 4.53039L69.3725 0.543111C69.0685 -0.181037 68.0314 -0.181037 67.7275 0.543111L66.0378 4.52145L61.7197 4.888C60.933 4.95058 60.6112 5.93399 61.2101 6.45251L64.4912 9.29546L63.5078 13.5152C63.3289 14.284 64.1604 14.892 64.8398 14.4807L68.55 12.2457Z" fill="#2162BE"/>
<path d="M88.85 12.2457L92.5601 14.4897C93.2395 14.9009 94.071 14.293 93.8922 13.5241L92.9088 9.3044L96.1898 6.46145C96.7888 5.94293 96.4669 4.95952 95.6802 4.89694L91.3621 4.53039L89.6724 0.543111C89.3685 -0.181037 88.3314 -0.181037 88.0275 0.543111L86.3378 4.52145L82.0197 4.888C81.233 4.95058 80.9111 5.93399 81.5101 6.45251L84.7911 9.29546L83.8077 13.5152C83.6289 14.284 84.4604 14.892 85.1398 14.4807L88.85 12.2457Z" fill="#2162BE"/>
</svg>
