<svg width="159" height="30" viewBox="0 0 159 30" fill="none" xmlns="http://www.w3.org/2000/svg">
<g opacity="0.8" clip-path="url(#clip0_1044_2820)">
<path d="M3.31363 0C1.48391 0 0 1.47481 0 3.29365V26.7064C0 28.5255 1.48343 30 3.31363 30H43.6864C45.5161 30 47 28.5252 47 26.7064V16.0812V3.29365C47 1.47447 45.5166 0 43.6864 0H3.31363Z" fill="#4D4D4D"/>
<path d="M19.7134 9.69421C20.2459 9.69421 20.6924 9.80456 21.2359 10.0708V11.4776C20.7211 10.9914 20.2745 10.7879 19.684 10.7879C18.5232 10.7879 17.6103 11.7163 17.6103 12.8933C17.6103 14.1346 18.495 15.0077 19.7415 15.0077C20.3027 15.0077 20.741 14.8148 21.2359 14.3364V15.7439C20.6731 15.9999 20.2169 16.101 19.684 16.101C17.7993 16.101 16.3348 14.7038 16.3348 12.902C16.3348 11.1196 17.8383 9.69421 19.7134 9.69421ZM13.8617 9.73298C14.5574 9.73298 15.194 9.96303 15.7262 10.4128L15.0786 11.2319C14.7562 10.8828 14.4513 10.7356 14.0805 10.7356C13.547 10.7356 13.1585 11.029 13.1585 11.415C13.1585 11.7461 13.3766 11.9213 14.1193 12.1868C15.5272 12.6842 15.9444 13.1252 15.9444 14.0991C15.9444 15.2858 15.0421 16.1119 13.7559 16.1119C12.8141 16.1119 12.1294 15.7536 11.5591 14.945L12.3586 14.2011C12.6437 14.7335 13.1192 15.0187 13.7095 15.0187C14.2617 15.0187 14.6705 14.6506 14.6705 14.154C14.6705 13.8966 14.5466 13.6758 14.2994 13.5197C14.1749 13.4458 13.9283 13.3357 13.4438 13.1706C12.2813 12.7663 11.8825 12.3342 11.8825 11.4897C11.8825 10.4864 12.739 9.73298 13.8617 9.73298ZM28.0052 9.83986H29.3572L31.0495 13.9574L32.7635 9.83986H34.1053L31.364 16.1273H30.698L28.0052 9.83986ZM4.0625 9.84928H5.87925C7.88649 9.84928 9.28574 11.1095 9.28574 12.9187C9.28574 13.8208 8.85768 14.693 8.13381 15.2718C7.52469 15.7604 6.83067 15.9795 5.86972 15.9795H4.0625V9.84928ZM9.85524 9.84928H11.093V15.9795H9.85524V9.84928ZM34.6649 9.84928H38.1749V10.888H35.9017V12.2487H38.0911V13.2869H35.9017V14.9416H38.1749V15.9795H34.6649V9.84928ZM38.9947 9.84928H40.8299C42.2573 9.84928 43.0753 10.5115 43.0753 11.6592C43.0753 12.5978 42.5623 13.2137 41.63 13.397L43.6274 15.9795H42.1054L40.3923 13.5168H40.2309V15.9795H38.9947V9.84928ZM40.2309 10.8148V12.6714H40.5926C41.383 12.6714 41.8018 12.3398 41.8018 11.7236C41.8018 11.127 41.3829 10.8148 40.6121 10.8148H40.2309ZM5.29929 10.888V14.9416H5.6314C6.4312 14.9416 6.9363 14.7936 7.32517 14.4545C7.75322 14.0862 8.01071 13.4982 8.01071 12.9099C8.01071 12.3225 7.75322 11.752 7.32517 11.3837C6.91637 11.0264 6.4312 10.888 5.6314 10.888H5.29929Z" fill="white"/>
<path d="M25.014 9.65344C26.8783 9.65344 28.3896 11.0654 28.3896 12.8097V12.8117C28.3896 14.5559 26.8783 15.9699 25.014 15.9699C23.1496 15.9699 21.6383 14.5559 21.6383 12.8117V12.8097C21.6383 11.0654 23.1496 9.65344 25.014 9.65344ZM46.9986 17.2671C45.4289 18.3648 33.6773 26.2096 13.3301 29.999H43.6849C45.5147 29.999 46.9986 28.5242 46.9986 26.7054V17.2671Z" fill="#F47216"/>
</g>
<g opacity="0.8" clip-path="url(#clip1_1044_2820)">
<path d="M156.07 0H113.539C112.137 0 111 1.14068 111 2.54777V27.4522C111 28.8593 112.137 30 113.539 30H156.07C157.472 30 158.609 28.8593 158.609 27.4522V2.54777C158.609 1.14068 157.472 0 156.07 0Z" fill="#0E4595"/>
<path d="M128.659 21.2884L130.777 8.81946H134.164L132.045 21.2884H128.659Z" fill="white"/>
<path d="M144.282 9.08839C143.611 8.83578 142.559 8.5647 141.246 8.5647C137.899 8.5647 135.542 10.2558 135.521 12.6796C135.503 14.4713 137.205 15.4707 138.489 16.0672C139.808 16.6783 140.251 17.0681 140.245 17.6139C140.236 18.4497 139.192 18.8315 138.218 18.8315C136.863 18.8315 136.142 18.6425 135.03 18.177L134.594 17.9788L134.118 20.7701C134.909 21.1181 136.372 21.4197 137.891 21.4353C141.452 21.4353 143.763 19.7635 143.789 17.1753C143.802 15.7569 142.9 14.6774 140.946 13.7876C139.762 13.2107 139.037 12.8258 139.044 12.2418C139.044 11.7235 139.658 11.1693 140.984 11.1693C142.092 11.152 142.894 11.3944 143.519 11.647L143.823 11.7909L144.282 9.08839Z" fill="white"/>
<path d="M152.998 8.81946H150.381C149.57 8.81946 148.964 9.0415 148.607 9.85347L143.577 21.2804H147.134C147.134 21.2804 147.715 19.744 147.847 19.4067C148.236 19.4067 151.691 19.412 152.185 19.412C152.286 19.8485 152.597 21.2804 152.597 21.2804H155.74L152.998 8.81946ZM148.846 16.8709C149.126 16.1525 150.195 13.3853 150.195 13.3853C150.175 13.4185 150.473 12.6634 150.644 12.1953L150.873 13.2703C150.873 13.2703 151.522 16.2467 151.657 16.8708H148.846V16.8709Z" fill="white"/>
<path d="M113.912 8.81946L113.869 9.07896C115.208 9.40415 116.404 9.87473 117.451 10.4602L120.456 21.2686L124.04 21.2644L129.372 8.81946H125.784L122.468 17.3224L122.115 15.5944C122.099 15.5417 122.081 15.4888 122.063 15.4358L120.91 9.87216C120.704 9.0826 120.11 8.84697 119.374 8.81946H113.912Z" fill="white"/>
</g>
<g opacity="0.8" clip-path="url(#clip2_1044_2820)">
<path d="M100.07 0H57.5391C56.1368 0 55 1.14068 55 2.54777V27.4522C55 28.8593 56.1368 30 57.5391 30H100.07C101.472 30 102.609 28.8593 102.609 27.4522V2.54777C102.609 1.14068 101.472 0 100.07 0Z" fill="black"/>
<path d="M69.037 26.8579V25.2751C69.037 24.6681 68.6688 24.2726 68.0645 24.2726C67.7471 24.2726 67.4075 24.3783 67.1708 24.7184C66.9867 24.428 66.7264 24.2726 66.3297 24.2726C66.03 24.2596 65.7439 24.3983 65.5679 24.642V24.3235H65.0684V26.856H65.5679V25.407C65.5679 24.9611 65.8307 24.7477 66.1989 24.7477C66.5671 24.7477 66.7772 24.9853 66.7772 25.407V26.8579H67.2768V25.407C67.2768 24.9611 67.5396 24.7477 67.9077 24.7477C68.2759 24.7477 68.486 24.9853 68.486 25.407V26.8579H69.037ZM77.2397 24.3515H76.3192V23.5872H75.8209V24.3515H75.2953V24.7974H75.8209V25.9872C75.8209 26.5675 76.0311 26.9108 76.662 26.9108C76.9011 26.9058 77.1353 26.8424 77.3444 26.7261L77.1864 26.2802C77.0445 26.3692 76.88 26.415 76.7128 26.412C76.45 26.412 76.3186 26.2534 76.3186 25.9898V24.777H77.239V24.3547L77.2397 24.3515ZM81.9193 24.2726C81.6425 24.2664 81.3828 24.4067 81.2356 24.642V24.3235H80.7361V26.856H81.2356V25.4337C81.2356 25.0114 81.4458 24.7477 81.7879 24.7477C81.9034 24.7524 82.0179 24.7701 82.1294 24.8006L82.2875 24.3254C82.1669 24.2949 82.0435 24.2772 81.9193 24.2726ZM74.8472 24.5363C74.5844 24.3515 74.2162 24.2726 73.822 24.2726C73.191 24.2726 72.7968 24.563 72.7968 25.0643C72.7968 25.4866 73.0863 25.7235 73.6379 25.8031L73.9007 25.8292C74.1902 25.8821 74.3743 25.9878 74.3743 26.1197C74.3743 26.3044 74.1642 26.4382 73.7693 26.4382C73.4678 26.4444 73.1726 26.3518 72.9282 26.1745L72.6654 26.57C73.0336 26.8337 73.4805 26.8885 73.7446 26.8885C74.4809 26.8885 74.8751 26.5458 74.8751 26.0706C74.8751 25.6248 74.5577 25.4114 74.0074 25.3318L73.7446 25.3057C73.5078 25.2796 73.3002 25.1999 73.3002 25.042C73.3002 24.8573 73.5103 24.7235 73.7998 24.7235C74.1172 24.7235 74.4308 24.8554 74.5888 24.9343L74.8472 24.5363ZM82.4716 25.5917C82.4716 26.356 82.9711 26.9108 83.7862 26.9108C84.1544 26.9108 84.4172 26.8318 84.68 26.6203L84.4172 26.2248C84.2311 26.376 83.9996 26.4597 83.7602 26.4624C83.3158 26.4624 82.9711 26.1197 82.9711 25.6184C82.9711 25.1171 83.3114 24.777 83.7602 24.777C83.9996 24.7797 84.2311 24.8634 84.4172 25.0146L84.68 24.6191C84.4172 24.4082 84.1544 24.3286 83.7862 24.3286C82.9972 24.2757 82.4716 24.8299 82.4716 25.5948V25.5917ZM78.9485 24.2726C78.2122 24.2726 77.7126 24.7999 77.7126 25.5917C77.7126 26.3834 78.2382 26.9108 79.0006 26.9108C79.3715 26.9186 79.7336 26.7976 80.0257 26.5681L79.7629 26.1987C79.5517 26.3629 79.2937 26.4553 79.0266 26.4624C78.6851 26.4624 78.3169 26.2515 78.2649 25.8031H80.1318V25.5923C80.1318 24.8006 79.6582 24.2732 78.9485 24.2732V24.2726ZM78.9225 24.7477C79.2907 24.7477 79.5535 24.9853 79.5795 25.3808H78.2128C78.2915 25.0114 78.5302 24.7477 78.9225 24.7477ZM72.1132 25.5917V24.3254H71.6136V24.6439C71.4295 24.4063 71.1693 24.2745 70.7985 24.2745C70.0889 24.2745 69.5626 24.8286 69.5626 25.5936C69.5626 26.3585 70.0882 26.9127 70.7985 26.9127C71.1667 26.9127 71.4295 26.7808 71.6136 26.5433V26.8617H72.1132V25.5917ZM70.0889 25.5917C70.0889 25.1165 70.3783 24.7477 70.8779 24.7477C71.3514 24.7477 71.6396 25.1171 71.6396 25.5917C71.6396 26.0929 71.3222 26.4356 70.8779 26.4356C70.3783 26.4617 70.0889 26.0662 70.0889 25.5917ZM89.5183 24.2726C89.2415 24.2664 88.9818 24.4067 88.8346 24.642V24.3235H88.335V26.856H88.834V25.4337C88.834 25.0114 89.0441 24.7477 89.3862 24.7477C89.5017 24.7524 89.6163 24.7701 89.7278 24.8006L89.8858 24.3254C89.7653 24.2949 89.6419 24.2772 89.5176 24.2726H89.5183ZM87.5727 25.5917V24.3254H87.0731V24.6439C86.889 24.4063 86.6287 24.2745 86.258 24.2745C85.5484 24.2745 85.0221 24.8286 85.0221 25.5936C85.0221 26.3585 85.5477 26.9127 86.258 26.9127C86.6262 26.9127 86.889 26.7808 87.0731 26.5433V26.8617H87.5727V25.5917ZM85.5484 25.5917C85.5484 25.1165 85.8378 24.7477 86.3374 24.7477C86.8109 24.7477 87.0991 25.1171 87.0991 25.5917C87.0991 26.0929 86.7817 26.4356 86.3374 26.4356C85.8378 26.4617 85.5484 26.0662 85.5484 25.5917ZM92.6471 25.5917V23.3229H92.1476V24.642C91.9635 24.4044 91.7032 24.2726 91.3325 24.2726C90.6228 24.2726 90.0966 24.8267 90.0966 25.5917C90.0966 26.3566 90.6222 26.9108 91.3325 26.9108C91.7007 26.9108 91.9635 26.7789 92.1476 26.5413V26.8598H92.6471V25.5917ZM90.6228 25.5917C90.6228 25.1165 90.9123 24.7477 91.4118 24.7477C91.8854 24.7477 92.1736 25.1171 92.1736 25.5917C92.1736 26.0929 91.8562 26.4356 91.4118 26.4356C90.9116 26.4624 90.6222 26.0668 90.6222 25.5917H90.6228Z" fill="white"/>
<path d="M83.3916 5.12036H74.2686V20.0516H83.3916V5.12036Z" fill="#FF5F00"/>
<path d="M75.1893 12.586C75.1899 9.67593 76.5166 6.92593 78.791 5.12035C74.9107 2.05911 69.3373 2.50409 65.9883 6.14251C62.6393 9.78094 62.6393 15.391 65.9883 19.0294C69.3373 22.6678 74.9107 23.1128 78.791 20.0516C76.5166 18.246 75.1899 15.496 75.1893 12.586Z" fill="#EB001B"/>
<path d="M94.1196 12.586C94.1222 16.2196 92.0563 19.5354 88.7998 21.1246C85.5433 22.7138 81.6682 22.2971 78.8213 20.0516C81.0963 18.2465 82.4231 15.4962 82.4231 12.586C82.4231 9.67581 81.0963 6.92554 78.8213 5.12041C81.6682 2.8749 85.5433 2.45821 88.7998 4.0474C92.0563 5.63658 94.1222 8.95246 94.1196 12.586Z" fill="#F79E1B"/>
</g>
<defs>
<clipPath id="clip0_1044_2820">
<rect width="47" height="30" fill="white"/>
</clipPath>
<clipPath id="clip1_1044_2820">
<rect width="47.6087" height="30" fill="white" transform="translate(111)"/>
</clipPath>
<clipPath id="clip2_1044_2820">
<rect width="47.6087" height="30" fill="white" transform="translate(55)"/>
</clipPath>
</defs>
</svg>
