<svg width="25" height="27" viewBox="0 0 25 27" fill="none" xmlns="http://www.w3.org/2000/svg">
<path d="M12.4644 0.184853C13.6709 0.184853 14.828 0.713646 15.6812 1.65458C16.5344 2.59567 17.0142 3.8725 17.0142 5.20341V6.20634H19.7437C19.9443 6.19621 20.1426 6.26004 20.3072 6.387C20.4718 6.51409 20.5938 6.69798 20.6539 6.90946L24.0933 19.1136C24.3284 19.9424 24.3827 20.8207 24.2515 21.677C24.1203 22.5334 23.8075 23.3437 23.3384 24.0413C22.877 24.7418 22.2701 25.3102 21.5689 25.6995C20.8677 26.0888 20.0922 26.2881 19.3072 26.2796H5.65875C4.89959 26.2794 4.15025 26.088 3.46832 25.72C2.78637 25.3519 2.18924 24.8166 1.7232 24.1556C1.2572 23.4944 0.934183 22.7243 0.778868 21.9046C0.623607 21.0849 0.639763 20.2367 0.82672 19.4251L3.59332 6.96903C3.6432 6.74654 3.76089 6.54913 3.92633 6.41044C4.09168 6.27201 4.295 6.19978 4.5025 6.20634H7.91461V5.20341C7.91461 3.8725 8.3944 2.59567 9.24762 1.65458C10.1008 0.713579 11.2579 0.184907 12.4644 0.184853ZM2.55524 19.9065C2.43823 20.4222 2.42896 20.9605 2.52789 21.4808C2.62691 22.0011 2.83232 22.4901 3.1275 22.9104C3.42277 23.3308 3.80083 23.6727 4.23297 23.9085C4.66503 24.1442 5.1406 24.2679 5.62262 24.2718H19.2711C19.7662 24.2726 20.2546 24.1445 20.6959 23.8968C21.1371 23.649 21.5184 23.289 21.8091 22.847C22.1083 22.4023 22.3083 21.886 22.3921 21.3401C22.476 20.7942 22.4413 20.2338 22.2916 19.7054L19.0894 8.21415H17.0142V13.2317C17.0142 13.4979 16.9182 13.7535 16.7476 13.9417C16.577 14.1299 16.3454 14.2356 16.1041 14.2356C15.8628 14.2356 15.6311 14.1299 15.4605 13.9417C15.29 13.7535 15.1939 13.4978 15.1939 13.2317V8.21415H9.73492V13.2317C9.73492 13.4979 9.63892 13.7535 9.46832 13.9417C9.29768 14.1299 9.06609 14.2356 8.82477 14.2356C8.5835 14.2356 8.35182 14.1299 8.18121 13.9417C8.0107 13.7535 7.91461 13.4978 7.91461 13.2317V8.21415H5.18512L2.55524 19.9065ZM12.4644 2.19169C11.7407 2.19174 11.0466 2.50919 10.5347 3.07352C10.0228 3.63818 9.73492 4.40486 9.73492 5.20341V6.20634H15.1939V5.20341C15.1939 4.40486 14.907 3.63818 14.3951 3.07352C13.8832 2.50896 13.1883 2.19169 12.4644 2.19169Z" fill="#2162BE"/>
</svg>
