<svg width="100" height="100" viewBox="0 0 100 100" fill="none" xmlns="http://www.w3.org/2000/svg">
<rect width="100" height="100" rx="5" fill="#2162BE" fill-opacity="0.8"/>
<path d="M75 45C75.0053 43.4374 74.4304 41.9285 73.3867 40.7656C72.6738 39.9657 72.2799 38.9315 72.28 37.86C72.2816 37.5585 72.312 37.2578 72.3708 36.962C72.4586 36.5402 72.5052 36.1108 72.51 35.68C72.5089 34.3403 72.085 33.0351 71.2988 31.9504C70.5125 30.8657 69.404 30.0568 68.1311 29.639C67.4826 29.4304 66.8932 29.0703 66.4115 28.5886C65.9298 28.107 65.5697 27.5175 65.3611 26.869C65.1308 26.1634 64.7773 25.5041 64.3171 24.9217C63.72 24.1674 62.9608 23.5572 62.0957 23.1362C61.2307 22.7153 60.282 22.4944 59.32 22.49C58.8862 22.495 58.4538 22.5418 58.029 22.63C57.3621 22.766 56.6728 22.7453 56.0153 22.5695C55.3578 22.3938 54.7501 22.0678 54.24 21.6172C53.0827 20.5842 51.5881 20.0092 50.0369 20.0001C48.4857 19.991 46.9845 20.5485 45.8152 21.5679C45.7771 21.5936 45.7406 21.6217 45.7059 21.6519C45.2035 22.0997 44.6018 22.4218 43.9505 22.5916C43.2992 22.7614 42.6169 22.774 41.9598 22.6284C41.5386 22.5412 41.1101 22.4949 40.68 22.49C39.7186 22.4944 38.7706 22.715 37.9061 23.1355C37.0416 23.556 36.2827 24.1656 35.6858 24.9192C35.2245 25.5022 34.8704 26.1624 34.6399 26.8692C34.4308 27.5185 34.0699 28.1085 33.5873 28.5905C33.1047 29.0725 32.5141 29.4325 31.8646 29.6407C30.5927 30.059 29.4852 30.8679 28.6998 31.9523C27.9143 33.0366 27.491 34.3411 27.49 35.68C27.4946 36.1097 27.5407 36.538 27.6277 36.9588C27.6873 37.2556 27.7182 37.5574 27.72 37.86C27.7205 38.929 27.3285 39.9609 26.6185 40.76C25.5772 41.9254 25.0012 43.4333 25.0003 44.9961C24.9994 46.559 25.5737 48.0675 26.6136 49.2341C27.3265 50.0342 27.7203 51.0684 27.72 52.14C27.7184 52.4416 27.688 52.7423 27.6292 53.038C27.5414 53.4598 27.4948 53.8892 27.49 54.32C27.4912 55.66 27.9153 56.9655 28.7019 58.0503C29.4886 59.1351 30.5976 59.944 31.8709 60.3615C32.2526 60.4921 32.6131 60.6779 32.9409 60.9129L27.1328 72.0786C27.0563 72.2253 27.0174 72.3887 27.0196 72.5542C27.0219 72.7196 27.0651 72.8819 27.1456 73.0265C27.226 73.1711 27.3411 73.2934 27.4805 73.3826C27.6199 73.4717 27.7793 73.5248 27.9443 73.5371L35.1182 74.0752L39.6768 79.6343C39.7706 79.7486 39.8887 79.8407 40.0224 79.9039C40.1561 79.9672 40.3021 80 40.45 80C40.4842 80 40.5184 79.998 40.5535 79.9946C40.718 79.9776 40.8757 79.92 41.0125 79.827C41.1492 79.7339 41.2606 79.6083 41.3367 79.4614L46.7281 69.0964C47.7169 69.6878 48.8476 70.0001 49.9997 70C51.1519 69.9999 52.2825 69.6874 53.2712 69.0958L58.6629 79.4614C58.739 79.6083 58.8504 79.7339 58.9871 79.827C59.1239 79.92 59.2816 79.9776 59.4461 79.9946C59.4812 79.998 59.5154 80 59.5496 80C59.6975 80 59.8436 79.9672 59.9773 79.904C60.1111 79.8407 60.2291 79.7486 60.323 79.6343L64.8816 74.0752L72.0545 73.5371C72.2195 73.5249 72.3789 73.4718 72.5184 73.3827C72.6578 73.2936 72.773 73.1712 72.8534 73.0266C72.9339 72.882 72.9772 72.7197 72.9793 72.5542C72.9815 72.3887 72.9426 72.2253 72.866 72.0786L67.0546 60.9051C67.3878 60.6738 67.7517 60.4901 68.1357 60.3594C69.4076 59.941 70.515 59.1321 71.3004 58.0477C72.0858 56.9634 72.5091 55.6589 72.51 54.32C72.5054 53.8903 72.4593 53.4621 72.3723 53.0412C72.3127 52.7445 72.2818 52.4427 72.28 52.14C72.2799 51.069 72.6733 50.0353 73.3854 49.2353C74.4293 48.0721 75.0046 46.563 75 45ZM35.0367 72.0634L29.6067 71.6563L34.3688 62.5016C34.3776 62.5189 34.388 62.535 34.3967 62.5524C34.4919 62.7403 34.5735 62.9348 34.6409 63.1343C35.168 64.716 36.2952 66.0275 37.7797 66.7864L35.0367 72.0634ZM40.2627 77.1934L36.8119 72.9853L39.7 67.43C40.4508 67.5525 41.2179 67.5328 41.9614 67.3717C42.2522 67.3141 42.5478 67.284 42.8442 67.2817C42.9403 67.2808 43.0302 67.2986 43.1242 67.3038C43.7392 67.3414 44.3392 67.5095 44.8842 67.7969C44.9531 67.8335 45.0261 67.8586 45.0936 67.8989L45.0967 67.9011L40.2627 77.1934ZM59.7373 77.1934L54.9033 67.9C55.1228 67.7689 55.3531 67.6566 55.5916 67.5644C56.0125 67.4098 56.4547 67.3211 56.9027 67.3016C56.988 67.2973 57.0692 67.2808 57.1562 67.2816C57.4176 67.2865 57.6782 67.313 57.9352 67.361C57.9706 67.3672 58.0034 67.3652 58.0391 67.3722C58.0545 67.3752 58.0671 67.3753 58.0824 67.3782C58.3486 67.4289 58.5941 67.4612 58.8279 67.4821C58.9179 67.4903 59.0046 67.4927 59.0916 67.497C59.1668 67.5002 59.2478 67.5099 59.3203 67.5099C59.3559 67.5099 59.3897 67.5021 59.4252 67.5015C59.7129 67.5014 60.0001 67.4785 60.2842 67.433L60.3014 67.4316L63.1881 72.9858L59.7373 77.1934ZM70.3926 71.6559L64.9633 72.063L62.2288 66.8017C62.2983 66.7658 62.3602 66.7178 62.4282 66.6795C62.529 66.623 62.6254 66.5607 62.7226 66.4989C62.8635 66.4089 63.0052 66.322 63.1386 66.2212C63.3436 66.0673 63.5392 65.9012 63.7242 65.7237C63.8101 65.6408 63.8868 65.5493 63.9681 65.4615C64.097 65.323 64.2224 65.182 64.3387 65.0322C64.4087 64.9414 64.4742 64.8474 64.5397 64.7522C64.656 64.5844 64.7633 64.4108 64.8635 64.2315C64.9102 64.1477 64.9588 64.0662 65.0019 63.9799C65.1417 63.7064 65.2615 63.423 65.3604 63.1322L65.3693 63.1108C65.4453 62.9076 65.5363 62.7104 65.6417 62.5208L70.3926 71.6559ZM71.8975 47.9L71.8926 47.9054C70.8536 49.0712 70.2796 50.5784 70.28 52.14C70.282 52.5704 70.3248 52.9996 70.4079 53.4218C70.4703 53.7172 70.5044 54.0179 70.5095 54.3197C70.5085 55.2376 70.218 56.1319 69.6794 56.8752C69.1408 57.6185 68.3815 58.1729 67.5095 58.4597C66.4082 58.8246 65.4282 59.4847 64.6762 60.3681C64.6375 60.4127 64.5962 60.4541 64.5587 60.4998C64.4503 60.6336 64.3527 60.7755 64.2554 60.9179C64.2081 60.9869 64.1561 61.0518 64.1116 61.1227C64.0081 61.2876 63.9176 61.4607 63.8295 61.6353C63.8034 61.6869 63.7719 61.7353 63.7473 61.7876C63.637 62.0206 63.5413 62.2603 63.4606 62.5051C63.393 62.7035 63.3115 62.8968 63.2166 63.0836C63.1849 63.147 63.1492 63.2077 63.1146 63.2692C63.0497 63.385 62.9801 63.4971 62.9056 63.6053C62.8556 63.678 62.8056 63.7507 62.751 63.8201C62.6864 63.9033 62.6157 63.9801 62.5457 64.0582C62.2576 64.3781 61.9238 64.6536 61.5551 64.8758C61.5337 64.8887 61.5129 64.9025 61.4913 64.915C61.3489 64.997 61.202 65.071 61.0513 65.1366L61.0169 65.151C60.8585 65.2187 60.6964 65.2771 60.5312 65.3259C60.4792 65.3422 60.4287 65.3516 60.3774 65.3659C60.258 65.3959 60.1409 65.4334 60.0182 65.4533L60.0016 65.4554C59.7967 65.4867 59.5899 65.5035 59.3826 65.5054C59.3159 65.5054 59.2489 65.5054 59.1785 65.5018C59.1154 65.4991 59.0521 65.4964 58.984 65.49C58.8097 65.4731 58.6272 65.4493 58.4218 65.4093C58.1665 65.3594 57.9086 65.3239 57.6494 65.3028C57.5438 65.2942 57.4411 65.2984 57.3366 65.2948C57.1909 65.2899 57.0442 65.2798 56.9006 65.2848C56.6974 65.2913 56.4983 65.3133 56.3001 65.3387C56.2592 65.344 56.2169 65.3441 56.1762 65.3502C55.4707 65.455 54.7887 65.6814 54.1606 66.0195L54.1489 66.0251C53.957 66.1296 53.7706 66.2439 53.5904 66.3676C53.5714 66.3804 53.5512 66.391 53.5324 66.404C53.3667 66.5191 53.2078 66.6465 53.0513 66.7781C53.0228 66.802 52.9919 66.8217 52.9638 66.8461L52.9598 66.8509C52.9405 66.8677 52.9198 66.8809 52.9003 66.8984C52.1011 67.6086 51.0691 68.0009 49.9999 68.0009C48.9307 68.0009 47.8987 67.6086 47.0995 66.8984C47.0819 66.8827 47.0644 66.8684 47.0468 66.8539L47.0175 66.8305C46.9194 66.746 46.8144 66.6731 46.7125 66.5951C46.6253 66.5281 46.5412 66.4556 46.4513 66.3934C46.3795 66.3434 46.3029 66.3034 46.2296 66.2572C46.0996 66.1752 45.9716 66.0901 45.8369 66.0179C45.8043 66.0005 45.7696 65.9879 45.7369 65.9711C44.4553 65.3162 42.9885 65.1181 41.5791 65.4096C40.8755 65.5803 40.1381 65.5494 39.4512 65.3207C38.7746 65.1223 38.1562 64.7627 37.6491 64.2728C37.1421 63.7828 36.7615 63.1771 36.54 62.5077C36.2203 61.5252 35.66 60.6383 34.91 59.9277L34.9014 59.9202L34.8924 59.9102L34.8868 59.9069C34.2117 59.247 33.393 58.7522 32.4949 58.4614C31.6219 58.1752 30.8614 57.6209 30.3219 56.8773C29.7823 56.1337 29.4912 55.2387 29.49 54.32C29.4952 54.0171 29.5295 53.7154 29.5926 53.4191C29.6752 52.9977 29.7178 52.5694 29.72 52.14C29.72 50.576 29.1444 49.0667 28.1028 47.9C27.3918 47.1001 26.9994 46.0668 27.0003 44.9965C27.0012 43.9262 27.3953 42.8936 28.1077 42.0948C29.1467 40.9289 29.7205 39.4217 29.72 37.86C29.718 37.4297 29.6752 37.0005 29.5921 36.5782C29.5295 36.2828 29.4953 35.982 29.49 35.68C29.491 34.7621 29.7815 33.8679 30.3201 33.1246C30.8587 32.3813 31.618 31.8268 32.49 31.54C33.4348 31.2292 34.2935 30.7009 34.9969 29.9977C35.7003 29.2944 36.2289 28.4359 36.54 27.4912C36.6975 27.0079 36.9399 26.5565 37.2559 26.1582C37.6649 25.641 38.185 25.2225 38.7778 24.9337C39.3705 24.6449 40.0207 24.4933 40.68 24.49C40.982 24.4952 41.2828 24.5291 41.5784 24.5911C42.5258 24.7921 43.5068 24.7705 44.4444 24.528C45.382 24.2855 46.2506 23.8287 46.9817 23.1936C47.0233 23.1661 47.0628 23.1357 47.1 23.1025C47.9001 22.3915 48.9334 21.9992 50.0037 22C51.074 22.0008 52.1067 22.3947 52.9057 23.1069C53.6474 23.7645 54.5316 24.2408 55.4887 24.4984C56.4459 24.756 57.4498 24.7878 58.4213 24.5913C58.717 24.5293 59.0179 24.4954 59.32 24.49C59.9797 24.4935 60.6302 24.6454 61.2233 24.9345C61.8163 25.2235 62.3367 25.6424 62.7458 26.16C63.0608 26.558 63.3026 27.0087 63.46 27.4912C63.7706 28.4353 64.2984 29.2933 65.0009 29.9964C65.7034 30.6994 66.561 31.2278 67.5049 31.5391C68.3779 31.8252 69.1383 32.3795 69.6779 33.123C70.2175 33.8665 70.5087 34.7613 70.51 35.68C70.5048 35.9829 70.4705 36.2846 70.4074 36.5809C70.3248 37.0023 70.2821 37.4306 70.28 37.86C70.28 39.424 70.8556 40.9333 71.8972 42.1C72.6075 42.899 72.9998 43.9309 72.9998 45C72.9998 46.0691 72.6078 47.101 71.8975 47.9Z" fill="white"/>
<path d="M60.208 40.3667L54.4736 39.2451L51.6348 34.1382C51.4729 33.8465 51.2359 33.6035 50.9484 33.4343C50.6609 33.265 50.3334 33.1758 49.9998 33.1758C49.6662 33.1758 49.3387 33.265 49.0512 33.4343C48.7637 33.6035 48.5267 33.8465 48.3648 34.1382L45.526 39.2451L39.792 40.3667C39.4648 40.4308 39.1606 40.5813 38.911 40.8024C38.6614 41.0236 38.4754 41.3074 38.3724 41.6246C38.2693 41.9417 38.2529 42.2807 38.3248 42.6063C38.3967 42.9319 38.5543 43.2324 38.7813 43.4767L42.7607 47.754L42.0557 53.5553C42.0157 53.8864 42.065 54.2222 42.1983 54.5279C42.3316 54.8335 42.5442 55.098 42.8141 55.294C43.084 55.4899 43.4013 55.6102 43.7332 55.6423C44.0652 55.6744 44.3997 55.6173 44.7021 55.4767L50 53.0142L55.2988 55.4771C55.6013 55.6176 55.9357 55.6746 56.2676 55.6424C56.5995 55.6102 56.9168 55.4899 57.1866 55.2939C57.4564 55.0979 57.6689 54.8334 57.8021 54.5277C57.9353 54.222 57.9844 53.8863 57.9443 53.5552L57.2393 47.7544L61.2193 43.4766C61.4464 43.2324 61.6041 42.9319 61.676 42.6062C61.748 42.2805 61.7315 41.9416 61.6284 41.6244C61.5254 41.3072 61.3394 41.0233 61.0897 40.8022C60.8401 40.5811 60.5353 40.4308 60.208 40.3667ZM55.7334 46.4367C55.5477 46.6361 55.4078 46.8736 55.3237 47.1328C55.2395 47.3919 55.213 47.6663 55.2461 47.9367L55.9307 53.5656L50.7881 51.175C50.5411 51.0601 50.2719 51.0006 49.9995 51.0007C49.727 51.0008 49.4579 51.0605 49.2109 51.1755L44.0693 53.5655L44.7529 47.9376C44.7865 47.6671 44.7604 47.3925 44.6764 47.1331C44.5924 46.8738 44.4525 46.636 44.2666 46.4366L40.4043 42.2853L45.97 41.1963C46.2374 41.1442 46.4902 41.0342 46.7105 40.874C46.9308 40.7138 47.1134 40.5073 47.2454 40.269L50 35.3135L52.7549 40.2695C52.887 40.5077 53.0696 40.7141 53.29 40.8742C53.5103 41.0343 53.763 41.1442 54.0303 41.1963L59.5957 42.2852L55.7334 46.4367Z" fill="white"/>
<path d="M50 26.5884C46.4515 26.5885 42.9828 27.6408 40.0324 29.6122C37.082 31.5836 34.7825 34.3857 33.4246 37.664C32.0667 40.9424 31.7114 44.5498 32.4037 48.03C33.0961 51.5103 34.8048 54.7071 37.314 57.2162C39.8232 59.7253 43.02 61.4339 46.5003 62.1262C49.9805 62.8184 53.5879 62.463 56.8662 61.105C60.1445 59.7471 62.9465 57.4474 64.9179 54.497C66.8893 51.5465 67.9414 48.0778 67.9414 44.5293C67.9359 39.7727 66.0438 35.2125 62.6803 31.8491C59.3169 28.4857 54.7566 26.5938 50 26.5884ZM50 60.4707C46.8471 60.4707 43.7651 59.5357 41.1436 57.7841C38.5221 56.0324 36.4789 53.5427 35.2724 50.6299C34.0659 47.717 33.7502 44.5118 34.3653 41.4195C34.9804 38.3272 36.4986 35.4868 38.728 33.2574C40.9574 31.028 43.7979 29.5098 46.8901 28.8947C49.9824 28.2796 53.1876 28.5952 56.1005 29.8018C59.0134 31.0083 61.5031 33.0515 63.2547 35.673C65.0064 38.2944 65.9413 41.3765 65.9414 44.5293C65.9364 48.7558 64.2553 52.8076 61.2668 55.7962C58.2783 58.7847 54.2264 60.4658 50 60.4707Z" fill="white"/>
</svg>
