<svg width="31" height="24" viewBox="0 0 31 24" fill="none" xmlns="http://www.w3.org/2000/svg">
<path fill-rule="evenodd" clip-rule="evenodd" d="M26.2358 23.3521C27.2298 23.3849 28.1961 23.0214 28.9221 22.3417C29.6482 21.6619 30.0745 20.7216 30.1072 19.7276L30.2924 14.1057C30.3251 13.1116 29.9617 12.1453 29.2819 11.4193C28.6022 10.6933 27.6619 10.267 26.6679 10.2342L21.0459 10.0491C21.095 8.55802 21.7345 7.14756 22.8235 6.12797C23.9126 5.10838 25.362 4.56318 26.8531 4.61229L28.727 4.67402C29.2241 4.69039 29.7072 4.50866 30.0702 4.16879C30.4333 3.82893 30.6464 3.35878 30.6628 2.86177C30.6791 2.36476 30.4974 1.8816 30.1575 1.51858C29.8177 1.15556 29.3475 0.942425 28.8505 0.926054L26.9765 0.864324C24.4915 0.782465 22.0757 1.69114 20.2606 3.39046C18.4455 5.08978 17.3798 7.44054 17.298 9.92559L16.9893 19.2955C16.9566 20.2895 17.32 21.2559 17.9998 21.9819C18.6795 22.7079 19.6198 23.1342 20.6138 23.1669L26.2358 23.3521ZM9.36992 22.7966C10.3639 22.8293 11.3303 22.4658 12.0563 21.7861C12.7823 21.1064 13.2086 20.1661 13.2413 19.1721L13.4265 13.5501C13.4593 12.5561 13.0958 11.5898 12.4161 10.8637C11.7363 10.1377 10.796 9.71142 9.80202 9.67867L4.18007 9.49349C4.22919 8.00245 4.8686 6.592 5.95765 5.57241C7.0467 4.55282 8.49618 4.00761 9.98721 4.05672L11.8612 4.11845C12.3582 4.13483 12.8414 3.95309 13.2044 3.61323C13.5674 3.27336 13.7805 2.80321 13.7969 2.3062C13.8133 1.80919 13.6315 1.32603 13.2917 0.963011C12.9518 0.599994 12.4817 0.386858 11.9847 0.370486L10.1107 0.308757C7.62561 0.226898 5.20982 1.13558 3.39474 2.8349C1.57965 4.53421 0.513964 6.88497 0.432105 9.37003L0.123457 18.7399C0.0907132 19.734 0.454185 20.7003 1.13391 21.4263C1.81364 22.1524 2.75394 22.5786 3.74796 22.6114L9.36992 22.7966Z" fill="#C5AC40"/>
</svg>
