<svg width="27" height="26" viewBox="0 0 27 26" fill="none" xmlns="http://www.w3.org/2000/svg">
<path d="M10.9531 0C16.9831 0 21.906 4.79596 21.9062 10.7539C21.9062 13.3676 20.9584 15.7576 19.3857 17.6172L26.0303 24.1289L26.1006 24.2041C26.4245 24.5936 26.4071 25.1733 26.0449 25.543C25.6825 25.9127 25.103 25.9415 24.707 25.625L24.6309 25.5576L17.958 19.0186C16.0564 20.5731 13.6131 21.5078 10.9531 21.5078C4.92319 21.5076 8.42489e-05 16.7119 0 10.7539C0.000215113 4.79606 4.92327 0.000163374 10.9531 0ZM10.9531 2C5.98948 2.00016 2.00022 5.93861 2 10.7539C2.00008 15.5693 5.9894 19.5077 10.9531 19.5078C15.917 19.5078 19.9062 15.5694 19.9062 10.7539C19.906 5.93851 15.9169 2 10.9531 2Z" fill="#2162BE"/>
</svg>
