<svg width="26" height="26" viewBox="0 0 26 26" fill="none" xmlns="http://www.w3.org/2000/svg">
<path d="M18.9827 16.0039C20.6097 16.08 22.1633 16.7243 23.3352 17.831C24.5871 19.0135 25.302 20.6298 25.302 22.3281V24.9941C25.3018 25.5462 24.8541 25.994 24.302 25.9941C23.75 25.9939 23.3022 25.5461 23.302 24.9941V22.3281C23.302 21.1984 22.8274 20.1025 21.9622 19.2851C21.149 18.5172 20.0534 18.0565 18.8899 18.0019L18.6565 17.9961H7.36548C6.19384 17.9962 5.07651 18.4092 4.22681 19.1357L4.05981 19.2851C3.19475 20.1024 2.71997 21.1985 2.71997 22.3281V24.9941C2.71979 25.5462 2.27214 25.9941 1.71997 25.9941C1.168 25.9939 0.720152 25.5461 0.719971 24.9941V22.3281C0.719971 20.6299 1.43505 19.0134 2.68677 17.831L2.92603 17.6152C4.14733 16.5706 5.73006 15.9962 7.36548 15.9961H18.6565L18.9827 16.0039ZM13.012 0.000938416C16.6273 0.00117935 19.6575 2.78307 19.6575 6.33297C19.6571 9.88261 16.6271 12.6648 13.012 12.665C9.39654 12.665 6.36682 9.88277 6.36646 6.33297C6.36646 2.78291 9.39633 0.000956878 13.012 0.000938416ZM13.012 2.00094C10.3916 2.00096 8.36646 3.99366 8.36646 6.33297C8.36683 8.67205 10.3919 10.665 13.012 10.665C15.6317 10.6648 17.6571 8.67194 17.6575 6.33297C17.6575 3.99378 15.632 2.00118 13.012 2.00094Z" fill="#2162BE"/>
</svg>
